<mxfile host="65bd71144e" scale="1" border="5">
    <diagram name="Page-1" id="9CptkLMM0ztSRVp6YB5i">
        <mxGraphModel dx="1363" dy="779" grid="0" gridSize="10" guides="1" tooltips="1" connect="1" arrows="1" fold="1" page="1" pageScale="1" pageWidth="827" pageHeight="583" background="#FFFFFF" math="1" shadow="0">
            <root>
                <mxCell id="0"/>
                <mxCell id="1" parent="0"/>
                <mxCell id="IWCZdA42NEQNfxDkU8em-257" value="" style="edgeStyle=orthogonalEdgeStyle;curved=1;rounded=0;orthogonalLoop=1;jettySize=auto;html=1;entryX=0.47;entryY=1.071;entryDx=0;entryDy=0;entryPerimeter=0;" parent="1" edge="1">
                    <mxGeometry relative="1" as="geometry">
                        <mxPoint x="516.3100000000001" y="400.28" as="sourcePoint"/>
                    </mxGeometry>
                </mxCell>
                <mxCell id="IWCZdA42NEQNfxDkU8em-532" value="&lt;b style=&quot;&quot;&gt;&lt;font style=&quot;font-size: 8px; color: rgb(199, 199, 199);&quot;&gt;@iriacardielperez&lt;/font&gt;&lt;/b&gt;" style="text;html=1;align=center;verticalAlign=middle;whiteSpace=wrap;rounded=0;rotation=0;" parent="1" vertex="1">
                    <mxGeometry x="300.93" y="244" width="148.77" height="43" as="geometry"/>
                </mxCell>
                <mxCell id="143" value="" style="rounded=1;whiteSpace=wrap;html=1;shadow=1;arcSize=12;" vertex="1" parent="1">
                    <mxGeometry x="20" y="18" width="407.23" height="229" as="geometry"/>
                </mxCell>
                <mxCell id="144" value="" style="shape=cube;whiteSpace=wrap;html=1;boundedLbl=1;backgroundOutline=1;darkOpacity=0.05;darkOpacity2=0.1;size=6;direction=east;rotation=0;" vertex="1" parent="1">
                    <mxGeometry x="215.36" y="147.93999999999994" width="50" height="21.81" as="geometry"/>
                </mxCell>
                <mxCell id="145" value="" style="shape=cube;whiteSpace=wrap;html=1;boundedLbl=1;backgroundOutline=1;darkOpacity=0.05;darkOpacity2=0.1;size=6;direction=east;rotation=0;" vertex="1" parent="1">
                    <mxGeometry x="226.09000000000003" y="156.92999999999995" width="50" height="21.81" as="geometry"/>
                </mxCell>
                <mxCell id="146" value="" style="shape=cube;whiteSpace=wrap;html=1;boundedLbl=1;backgroundOutline=1;darkOpacity=0.05;darkOpacity2=0.1;size=6;direction=east;rotation=0;strokeColor=#FFB570;" vertex="1" parent="1">
                    <mxGeometry x="235.36" y="167.78999999999996" width="50" height="21.81" as="geometry"/>
                </mxCell>
                <mxCell id="147" value="" style="shape=cube;whiteSpace=wrap;html=1;boundedLbl=1;backgroundOutline=1;darkOpacity=0.05;darkOpacity2=0.1;size=6;direction=east;rotation=0;" vertex="1" parent="1">
                    <mxGeometry x="314.9" y="146.08999999999992" width="50" height="21.81" as="geometry"/>
                </mxCell>
                <mxCell id="148" value="" style="shape=cube;whiteSpace=wrap;html=1;boundedLbl=1;backgroundOutline=1;darkOpacity=0.05;darkOpacity2=0.1;size=6;direction=east;rotation=0;" vertex="1" parent="1">
                    <mxGeometry x="325.63" y="155.07999999999993" width="50" height="21.81" as="geometry"/>
                </mxCell>
                <mxCell id="149" value="" style="shape=cube;whiteSpace=wrap;html=1;boundedLbl=1;backgroundOutline=1;darkOpacity=0.05;darkOpacity2=0.1;size=6;direction=east;rotation=0;strokeColor=#FFB570;" vertex="1" parent="1">
                    <mxGeometry x="334.9" y="165.93999999999994" width="50" height="21.81" as="geometry"/>
                </mxCell>
                <mxCell id="150" value="&lt;font style=&quot;font-size: 8px;&quot;&gt;&lt;b style=&quot;&quot;&gt;V&lt;/b&gt;&lt;/font&gt;" style="ellipse;whiteSpace=wrap;html=1;fillColor=#FFE599;align=center;strokeColor=#FFB570;" vertex="1" parent="1">
                    <mxGeometry x="325.63" y="105.56999999999994" width="20" height="20" as="geometry"/>
                </mxCell>
                <mxCell id="151" value="&lt;font style=&quot;font-size: 8px;&quot;&gt;$$@$$&lt;/font&gt;" style="ellipse;whiteSpace=wrap;html=1;align=center;" vertex="1" parent="1">
                    <mxGeometry x="236.39999999999998" y="105.56999999999994" width="18.5" height="18.5" as="geometry"/>
                </mxCell>
                <mxCell id="152" style="edgeStyle=orthogonalEdgeStyle;curved=1;rounded=0;orthogonalLoop=1;jettySize=auto;html=1;entryX=0;entryY=0.5;entryDx=0;entryDy=0;exitX=1;exitY=0.5;exitDx=0;exitDy=0;" edge="1" parent="1" source="171" target="151">
                    <mxGeometry relative="1" as="geometry">
                        <mxPoint x="114.89999999999992" y="146.67999999999995" as="sourcePoint"/>
                        <mxPoint x="167.89999999999992" y="146.67999999999995" as="targetPoint"/>
                    </mxGeometry>
                </mxCell>
                <mxCell id="153" value="" style="edgeStyle=orthogonalEdgeStyle;curved=1;rounded=0;orthogonalLoop=1;jettySize=auto;html=1;exitX=0.5;exitY=0;exitDx=0;exitDy=0;" edge="1" parent="1" source="151">
                    <mxGeometry relative="1" as="geometry">
                        <mxPoint x="245.33000000000004" y="91.63" as="targetPoint"/>
                        <mxPoint x="345.9" y="128.67999999999995" as="sourcePoint"/>
                    </mxGeometry>
                </mxCell>
                <mxCell id="154" value="" style="shape=crossbar;whiteSpace=wrap;html=1;rounded=1;direction=south;" vertex="1" parent="1">
                    <mxGeometry x="275.69999999999993" y="63.1400000000001" width="4.08" height="14" as="geometry"/>
                </mxCell>
                <mxCell id="155" value="" style="shape=crossbar;whiteSpace=wrap;html=1;rounded=1;direction=south;rotation=-45;" vertex="1" parent="1">
                    <mxGeometry x="219.52999999999986" y="73.36000000000013" width="3.77" height="8.56" as="geometry"/>
                </mxCell>
                <mxCell id="156" value="&lt;span style=&quot;font-size: 10px;&quot;&gt;&lt;b&gt;B&lt;/b&gt;&lt;/span&gt;" style="text;html=1;align=center;verticalAlign=middle;whiteSpace=wrap;rounded=0;" vertex="1" parent="1">
                    <mxGeometry x="276.2700000000001" y="55.1400000000001" width="19.54" height="30" as="geometry"/>
                </mxCell>
                <mxCell id="157" value="&lt;b style=&quot;&quot;&gt;&lt;font style=&quot;font-size: 8px;&quot;&gt;head_size&lt;/font&gt;&lt;/b&gt;" style="text;html=1;align=center;verticalAlign=middle;whiteSpace=wrap;rounded=0;" vertex="1" parent="1">
                    <mxGeometry x="176.64999999999992" y="70.13999999999999" width="39.11" height="15" as="geometry"/>
                </mxCell>
                <mxCell id="158" value="" style="shape=crossbar;whiteSpace=wrap;html=1;rounded=1;direction=south;rotation=-90;" vertex="1" parent="1">
                    <mxGeometry x="246.52999999999986" y="63.139999999999986" width="6" height="40.37" as="geometry"/>
                </mxCell>
                <mxCell id="159" value="&lt;span style=&quot;font-size: 10px;&quot;&gt;&lt;b&gt;T&lt;/b&gt;&lt;/span&gt;" style="text;html=1;align=center;verticalAlign=middle;whiteSpace=wrap;rounded=0;" vertex="1" parent="1">
                    <mxGeometry x="228.02999999999997" y="78.92000000000007" width="50" height="20" as="geometry"/>
                </mxCell>
                <mxCell id="160" value="" style="shape=cube;whiteSpace=wrap;html=1;boundedLbl=1;backgroundOutline=1;darkOpacity=0.05;darkOpacity2=0.1;size=6;direction=east;rotation=0;" vertex="1" parent="1">
                    <mxGeometry x="202.52999999999986" y="37.110000000000014" width="50" height="21.81" as="geometry"/>
                </mxCell>
                <mxCell id="161" value="" style="shape=crossbar;whiteSpace=wrap;html=1;rounded=1;direction=south;rotation=-45;" vertex="1" parent="1">
                    <mxGeometry x="263.2599999999999" y="26.230000000000132" width="5.34" height="39.16" as="geometry"/>
                </mxCell>
                <mxCell id="162" value="&lt;b style=&quot;&quot;&gt;&lt;font style=&quot;font-size: 8px;&quot;&gt;n_embd&lt;/font&gt;&lt;/b&gt;" style="text;html=1;align=center;verticalAlign=middle;whiteSpace=wrap;rounded=0;" vertex="1" parent="1">
                    <mxGeometry x="243.88" y="33.23000000000013" width="80" height="15" as="geometry"/>
                </mxCell>
                <mxCell id="163" value="" style="shape=cube;whiteSpace=wrap;html=1;boundedLbl=1;backgroundOutline=1;darkOpacity=0.05;darkOpacity2=0.1;size=6;direction=east;rotation=0;" vertex="1" parent="1">
                    <mxGeometry x="213.25999999999988" y="46.10000000000002" width="50" height="21.81" as="geometry"/>
                </mxCell>
                <mxCell id="164" value="" style="shape=cube;whiteSpace=wrap;html=1;boundedLbl=1;backgroundOutline=1;darkOpacity=0.05;darkOpacity2=0.1;size=6;direction=east;rotation=0;strokeColor=#FFB570;" vertex="1" parent="1">
                    <mxGeometry x="222.52999999999986" y="56.96000000000015" width="50" height="21.81" as="geometry"/>
                </mxCell>
                <mxCell id="165" style="edgeStyle=orthogonalEdgeStyle;curved=1;rounded=0;orthogonalLoop=1;jettySize=auto;html=1;entryX=0;entryY=0.5;entryDx=0;entryDy=0;" edge="1" parent="1" source="166" target="170">
                    <mxGeometry relative="1" as="geometry"/>
                </mxCell>
                <mxCell id="166" value="&lt;font style=&quot;font-size: 8px;&quot;&gt;&lt;b style=&quot;&quot;&gt;Q&lt;/b&gt;&lt;/font&gt;" style="ellipse;whiteSpace=wrap;html=1;fillColor=#FFE599;align=center;strokeColor=#FFB570;" vertex="1" parent="1">
                    <mxGeometry x="84.97999999999996" y="127.93999999999994" width="20" height="20" as="geometry"/>
                </mxCell>
                <mxCell id="167" value="&lt;font style=&quot;font-size: 8px;&quot;&gt;&lt;b style=&quot;&quot;&gt;K&lt;/b&gt;&lt;/font&gt;" style="ellipse;whiteSpace=wrap;html=1;fillColor=#FFE599;align=center;strokeColor=#FFB570;" vertex="1" parent="1">
                    <mxGeometry x="230.36" y="127.93999999999994" width="20" height="20" as="geometry"/>
                </mxCell>
                <mxCell id="168" value="" style="edgeStyle=orthogonalEdgeStyle;curved=1;rounded=0;orthogonalLoop=1;jettySize=auto;html=1;" edge="1" parent="1" source="167" target="170">
                    <mxGeometry relative="1" as="geometry">
                        <mxPoint x="164.89999999999992" y="89.82000000000005" as="targetPoint"/>
                        <mxPoint x="229.89999999999998" y="125.81999999999994" as="sourcePoint"/>
                    </mxGeometry>
                </mxCell>
                <mxCell id="169" value="" style="edgeStyle=orthogonalEdgeStyle;curved=1;rounded=0;orthogonalLoop=1;jettySize=auto;html=1;entryX=0.47;entryY=1.071;entryDx=0;entryDy=0;entryPerimeter=0;" edge="1" parent="1" source="170" target="171">
                    <mxGeometry relative="1" as="geometry">
                        <Array as="points">
                            <mxPoint x="167.89999999999992" y="105.67999999999995"/>
                        </Array>
                    </mxGeometry>
                </mxCell>
                <mxCell id="170" value="&lt;font style=&quot;font-size: 8px;&quot;&gt;$$@$$&lt;/font&gt;" style="ellipse;whiteSpace=wrap;html=1;align=center;" vertex="1" parent="1">
                    <mxGeometry x="158.14999999999992" y="129.15999999999997" width="18.5" height="18.5" as="geometry"/>
                </mxCell>
                <mxCell id="171" value="&lt;font style=&quot;font-size: 10px;&quot;&gt;Softmax&lt;/font&gt;" style="rounded=1;whiteSpace=wrap;html=1;fillColor=#CCFFFF;strokeColor=#FFB570;" vertex="1" parent="1">
                    <mxGeometry x="144.89999999999992" y="107.81999999999994" width="50" height="14" as="geometry"/>
                </mxCell>
                <mxCell id="172" value="" style="edgeStyle=orthogonalEdgeStyle;curved=1;rounded=0;orthogonalLoop=1;jettySize=auto;html=1;entryX=1;entryY=0.5;entryDx=0;entryDy=0;exitX=0.093;exitY=0.476;exitDx=0;exitDy=0;exitPerimeter=0;" edge="1" parent="1" source="150" target="151">
                    <mxGeometry relative="1" as="geometry">
                        <mxPoint x="272.63" y="112.67999999999995" as="targetPoint"/>
                        <mxPoint x="325.63" y="113.67999999999995" as="sourcePoint"/>
                    </mxGeometry>
                </mxCell>
                <mxCell id="173" value="" style="shape=crossbar;whiteSpace=wrap;html=1;rounded=1;direction=south;rotation=-45;" vertex="1" parent="1">
                    <mxGeometry x="98.97999999999985" y="192.33000000000004" width="3.77" height="8.56" as="geometry"/>
                </mxCell>
                <mxCell id="174" value="&lt;b style=&quot;&quot;&gt;&lt;font style=&quot;font-size: 8px;&quot;&gt;head_size&lt;/font&gt;&lt;/b&gt;" style="text;html=1;align=center;verticalAlign=middle;whiteSpace=wrap;rounded=0;" vertex="1" parent="1">
                    <mxGeometry x="56.099999999999966" y="189.1099999999999" width="39.11" height="15" as="geometry"/>
                </mxCell>
                <mxCell id="175" value="" style="shape=cube;whiteSpace=wrap;html=1;boundedLbl=1;backgroundOutline=1;darkOpacity=0.05;darkOpacity2=0.1;size=6;direction=east;rotation=0;" vertex="1" parent="1">
                    <mxGeometry x="81.97999999999985" y="156.07999999999993" width="50" height="21.81" as="geometry"/>
                </mxCell>
                <mxCell id="176" value="" style="shape=cube;whiteSpace=wrap;html=1;boundedLbl=1;backgroundOutline=1;darkOpacity=0.05;darkOpacity2=0.1;size=6;direction=east;rotation=0;" vertex="1" parent="1">
                    <mxGeometry x="92.70999999999987" y="165.06999999999994" width="50" height="21.81" as="geometry"/>
                </mxCell>
                <mxCell id="177" value="" style="shape=cube;whiteSpace=wrap;html=1;boundedLbl=1;backgroundOutline=1;darkOpacity=0.05;darkOpacity2=0.1;size=6;direction=east;rotation=0;strokeColor=#FFB570;" vertex="1" parent="1">
                    <mxGeometry x="101.97999999999985" y="175.92999999999995" width="50" height="21.81" as="geometry"/>
                </mxCell>
                <mxCell id="178" value="&lt;font style=&quot;font-size: 10px;&quot;&gt;Linear&lt;/font&gt;" style="rounded=1;whiteSpace=wrap;html=1;fillColor=#CCCCFF;" vertex="1" parent="1">
                    <mxGeometry x="106.15999999999991" y="204.18000000000006" width="60.5" height="14" as="geometry"/>
                </mxCell>
                <mxCell id="179" value="&lt;b style=&quot;&quot;&gt;&lt;font style=&quot;font-size: 6px;&quot;&gt;n_embd x head_size&lt;/font&gt;&lt;/b&gt;" style="text;html=1;align=center;verticalAlign=middle;whiteSpace=wrap;rounded=0;" vertex="1" parent="1">
                    <mxGeometry x="102.74999999999994" y="213.67999999999995" width="70" height="15" as="geometry"/>
                </mxCell>
                <mxCell id="180" value="&lt;b style=&quot;&quot;&gt;&lt;font style=&quot;font-size: 8px; background-color: rgb(255, 217, 102);&quot;&gt;attention scores&lt;/font&gt;&lt;/b&gt;" style="text;html=1;align=center;verticalAlign=middle;whiteSpace=wrap;rounded=0;" vertex="1" parent="1">
                    <mxGeometry x="134.07999999999998" y="143.79999999999995" width="71.65" height="15" as="geometry"/>
                </mxCell>
                <mxCell id="181" value="&lt;b style=&quot;&quot;&gt;&lt;font style=&quot;font-size: 8px; background-color: rgb(255, 217, 102);&quot;&gt;attention weights&lt;/font&gt;&lt;/b&gt;" style="text;html=1;align=center;verticalAlign=middle;whiteSpace=wrap;rounded=0;" vertex="1" parent="1">
                    <mxGeometry x="134.07999999999998" y="90.57000000000005" width="71.65" height="15" as="geometry"/>
                </mxCell>
                <mxCell id="182" value="&lt;font style=&quot;font-size: 10px;&quot;&gt;Linear&lt;/font&gt;" style="rounded=1;whiteSpace=wrap;html=1;fillColor=#CCCCFF;" vertex="1" parent="1">
                    <mxGeometry x="234.34000000000003" y="204.11" width="60.5" height="14" as="geometry"/>
                </mxCell>
                <mxCell id="183" value="&lt;b style=&quot;&quot;&gt;&lt;font style=&quot;font-size: 6px;&quot;&gt;n_embd x head_size&lt;/font&gt;&lt;/b&gt;" style="text;html=1;align=center;verticalAlign=middle;whiteSpace=wrap;rounded=0;" vertex="1" parent="1">
                    <mxGeometry x="230.92999999999995" y="213.6099999999999" width="70" height="15" as="geometry"/>
                </mxCell>
                <mxCell id="184" value="&lt;font style=&quot;font-size: 10px;&quot;&gt;Linear&lt;/font&gt;" style="rounded=1;whiteSpace=wrap;html=1;fillColor=#CCCCFF;" vertex="1" parent="1">
                    <mxGeometry x="334.67999999999995" y="204.18000000000006" width="60.5" height="14" as="geometry"/>
                </mxCell>
                <mxCell id="185" value="&lt;b style=&quot;&quot;&gt;&lt;font style=&quot;font-size: 6px;&quot;&gt;n_embd x head_size&lt;/font&gt;&lt;/b&gt;" style="text;html=1;align=center;verticalAlign=middle;whiteSpace=wrap;rounded=0;" vertex="1" parent="1">
                    <mxGeometry x="331.2700000000001" y="213.67999999999995" width="70" height="15" as="geometry"/>
                </mxCell>
                <mxCell id="186" value="&lt;b style=&quot;&quot;&gt;&lt;font style=&quot;font-size: 8px; background-color: rgb(255, 217, 102);&quot;&gt;Contextual transformation of each token attending to other tokens.&lt;/font&gt;&lt;/b&gt;&lt;div&gt;&lt;b style=&quot;&quot;&gt;&lt;font style=&quot;font-size: 8px; background-color: rgb(255, 217, 102);&quot;&gt;&lt;br&gt;&lt;/font&gt;&lt;/b&gt;&lt;/div&gt;&lt;div&gt;&lt;br&gt;&lt;/div&gt;&lt;div&gt;&lt;b style=&quot;&quot;&gt;&lt;font style=&quot;font-size: 8px; background-color: rgb(255, 217, 102);&quot;&gt;&lt;br&gt;&lt;/font&gt;&lt;/b&gt;&lt;/div&gt;&lt;div&gt;&lt;br&gt;&lt;/div&gt;" style="text;html=1;align=center;verticalAlign=middle;whiteSpace=wrap;rounded=0;" vertex="1" parent="1">
                    <mxGeometry x="27" y="55.139999999999986" width="142.06" height="42.89" as="geometry"/>
                </mxCell>
            </root>
        </mxGraphModel>
    </diagram>
</mxfile>